<svg width="169" height="33" viewBox="0 0 169 33" fill="none" xmlns="http://www.w3.org/2000/svg">
<path d="M7.17739 1H161.523C164.934 1 167.7 3.76571 167.7 7.17739V25.3638C167.7 28.7754 164.934 31.5412 161.523 31.5412H7.17739C3.76571 31.5412 1 28.7754 1 25.3638V7.17739C1 3.76571 3.76571 1 7.17739 1Z" stroke="#09090B" stroke-width="2"/>
<path d="M118.638 17.4735H114.791L114.102 18.8055H112.284L115.598 12.3804H117.831L121.154 18.8055H119.328L118.638 17.4735ZM118.019 16.2433L116.75 13.6341L115.434 16.2433H118.019Z" fill="#ECF0F1"/>
<path d="M127.665 16.9328L128.848 18.8055H126.936L125.894 17.0895H123.23V18.8055H121.577V12.3803H126.631C126.951 12.3547 127.273 12.3971 127.576 12.5047C127.879 12.6123 128.155 12.7826 128.387 13.0046C128.62 13.2265 128.803 13.495 128.924 13.7926C129.045 14.0901 129.102 14.4099 129.091 14.731C129.121 15.2024 128.999 15.6709 128.742 16.0674C128.485 16.4639 128.108 16.7673 127.665 16.9328ZM123.199 15.7339H126.153C126.654 15.7339 127.422 15.7339 127.422 14.7701C127.422 13.8064 126.639 13.7985 126.153 13.7985H123.214L123.199 15.7339Z" fill="#ECF0F1"/>
<path d="M133.698 18.9308C130.87 18.9308 129.655 17.8573 129.655 15.6164V12.4116H131.309V15.6164C131.309 16.5175 131.559 17.5439 133.659 17.5439C135.759 17.5439 136.049 16.5096 136.049 15.6164V12.4116H137.695V15.6164C137.734 17.8495 136.519 18.9308 133.698 18.9308Z" fill="#ECF0F1"/>
<path d="M11.099 18.7632H9.76844L9.77719 18.076H11.099C11.5542 18.076 11.9335 17.9812 12.237 17.7915C12.5405 17.5989 12.7681 17.3305 12.9198 16.9862C13.0745 16.6389 13.1518 16.2333 13.1518 15.7694V15.3798C13.1518 15.0151 13.108 14.6912 13.0205 14.4082C12.9329 14.1222 12.8046 13.8815 12.6353 13.686C12.4661 13.4876 12.2589 13.3373 12.0138 13.2352C11.7716 13.133 11.4929 13.082 11.1778 13.082H9.74218V12.3904H11.1778C11.5951 12.3904 11.9759 12.4604 12.3202 12.6005C12.6645 12.7376 12.9607 12.9375 13.2087 13.2001C13.4596 13.4598 13.6522 13.775 13.7864 14.1455C13.9207 14.5132 13.9878 14.9276 13.9878 15.3886V15.7694C13.9878 16.2304 13.9207 16.6462 13.7864 17.0168C13.6522 17.3845 13.4582 17.6981 13.2043 17.9578C12.9534 18.2175 12.6499 18.4174 12.2939 18.5575C11.9408 18.6946 11.5425 18.7632 11.099 18.7632ZM10.2193 12.3904V18.7632H9.37452V12.3904H10.2193ZM17.0998 18.8507C16.77 18.8507 16.4709 18.7953 16.2025 18.6844C15.937 18.5706 15.7079 18.4116 15.5153 18.2073C15.3257 18.0031 15.1798 17.7609 15.0776 17.4808C14.9755 17.2006 14.9244 16.8942 14.9244 16.5616V16.3778C14.9244 15.9926 14.9813 15.6497 15.0951 15.3492C15.2089 15.0457 15.3636 14.789 15.5591 14.5789C15.7546 14.3688 15.9764 14.2097 16.2244 14.1018C16.4724 13.9938 16.7292 13.9398 16.9947 13.9398C17.3332 13.9398 17.625 13.9982 17.8701 14.1149C18.1181 14.2316 18.3209 14.395 18.4785 14.6051C18.636 14.8123 18.7528 15.0574 18.8286 15.3404C18.9045 15.6206 18.9424 15.9269 18.9424 16.2596V16.6229H15.4059V15.962H18.1327V15.9007C18.121 15.6906 18.0773 15.4863 18.0014 15.2879C17.9285 15.0895 17.8117 14.9261 17.6512 14.7977C17.4908 14.6693 17.2719 14.6051 16.9947 14.6051C16.8109 14.6051 16.6416 14.6445 16.487 14.7233C16.3323 14.7992 16.1996 14.913 16.0887 15.0647C15.9778 15.2164 15.8917 15.4017 15.8305 15.6206C15.7692 15.8394 15.7385 16.0918 15.7385 16.3778V16.5616C15.7385 16.7863 15.7692 16.9978 15.8305 17.1963C15.8946 17.3918 15.9866 17.5639 16.1062 17.7127C16.2288 17.8615 16.3761 17.9783 16.5483 18.0629C16.7233 18.1475 16.9218 18.1898 17.1435 18.1898C17.4295 18.1898 17.6717 18.1315 17.8701 18.0147C18.0685 17.898 18.2421 17.7419 18.3909 17.5464L18.8812 17.9359C18.779 18.0906 18.6492 18.238 18.4916 18.378C18.334 18.5181 18.14 18.6319 17.9095 18.7194C17.6819 18.807 17.412 18.8507 17.0998 18.8507ZM22.6453 17.507C22.6453 17.3903 22.619 17.2823 22.5665 17.1831C22.5169 17.081 22.4133 16.9891 22.2557 16.9074C22.1011 16.8228 21.8677 16.7498 21.5554 16.6885C21.2928 16.6331 21.055 16.5674 20.842 16.4916C20.6319 16.4157 20.4525 16.3238 20.3036 16.2158C20.1578 16.1079 20.0454 15.9809 19.9666 15.835C19.8878 15.6891 19.8485 15.5184 19.8485 15.3229C19.8485 15.1362 19.8893 14.9597 19.971 14.7933C20.0556 14.627 20.1738 14.4797 20.3255 14.3513C20.4802 14.2229 20.6655 14.1222 20.8814 14.0493C21.0973 13.9763 21.3381 13.9398 21.6036 13.9398C21.9829 13.9398 22.3068 14.0069 22.5753 14.1412C22.8437 14.2754 23.0494 14.4549 23.1924 14.6795C23.3354 14.9013 23.4069 15.1479 23.4069 15.4192H22.5971C22.5971 15.2879 22.5578 15.161 22.479 15.0384C22.4031 14.913 22.2908 14.8094 22.1419 14.7277C21.9961 14.646 21.8166 14.6051 21.6036 14.6051C21.3789 14.6051 21.1965 14.6401 21.0565 14.7102C20.9193 14.7773 20.8187 14.8634 20.7545 14.9684C20.6932 15.0735 20.6626 15.1843 20.6626 15.3011C20.6626 15.3886 20.6771 15.4674 20.7063 15.5374C20.7384 15.6045 20.7939 15.6673 20.8726 15.7256C20.9514 15.7811 21.0623 15.8336 21.2053 15.8832C21.3483 15.9328 21.5306 15.9824 21.7524 16.032C22.1405 16.1195 22.46 16.2246 22.7109 16.3471C22.9619 16.4697 23.1486 16.62 23.2712 16.798C23.3937 16.9759 23.455 17.1919 23.455 17.4457C23.455 17.6529 23.4113 17.8426 23.3237 18.0147C23.2391 18.1869 23.1151 18.3357 22.9517 18.4612C22.7912 18.5837 22.5986 18.68 22.3739 18.7501C22.1522 18.8172 21.9027 18.8507 21.6255 18.8507C21.2082 18.8507 20.8551 18.7763 20.5663 18.6275C20.2774 18.4787 20.0585 18.2861 19.9097 18.0497C19.7609 17.8134 19.6865 17.5639 19.6865 17.3013H20.5006C20.5123 17.5231 20.5765 17.6996 20.6932 17.8309C20.8099 17.9593 20.9529 18.0512 21.1221 18.1066C21.2914 18.1592 21.4592 18.1854 21.6255 18.1854C21.8472 18.1854 22.0325 18.1563 22.1813 18.0979C22.3331 18.0395 22.4483 17.9593 22.5271 17.8572C22.6059 17.755 22.6453 17.6383 22.6453 17.507ZM25.3984 14.0274V18.7632H24.5843V14.0274H25.3984ZM24.523 12.7712C24.523 12.6399 24.5624 12.529 24.6412 12.4386C24.7229 12.3481 24.8425 12.3029 25.0001 12.3029C25.1547 12.3029 25.2729 12.3481 25.3546 12.4386C25.4392 12.529 25.4815 12.6399 25.4815 12.7712C25.4815 12.8967 25.4392 13.0046 25.3546 13.0951C25.2729 13.1826 25.1547 13.2264 25.0001 13.2264C24.8425 13.2264 24.7229 13.1826 24.6412 13.0951C24.5624 13.0046 24.523 12.8967 24.523 12.7712ZM29.7665 14.0274H30.5018V18.6625C30.5018 19.0798 30.4172 19.4358 30.248 19.7305C30.0787 20.0252 29.8424 20.2484 29.5389 20.4001C29.2384 20.5548 28.8911 20.6321 28.4972 20.6321C28.3338 20.6321 28.1412 20.6059 27.9195 20.5533C27.7006 20.5037 27.4847 20.4177 27.2717 20.2951C27.0616 20.1755 26.8851 20.0135 26.7421 19.8093L27.1666 19.3278C27.3651 19.5671 27.5722 19.7334 27.7882 19.8268C28.007 19.9201 28.2229 19.9668 28.4359 19.9668C28.6927 19.9668 28.9145 19.9187 29.1012 19.8224C29.288 19.7261 29.4324 19.5831 29.5345 19.3935C29.6396 19.2067 29.6921 18.9762 29.6921 18.7019V15.0691L29.7665 14.0274ZM26.5057 16.4478V16.3559C26.5057 15.9941 26.548 15.6658 26.6327 15.3711C26.7202 15.0735 26.8442 14.8181 27.0047 14.6051C27.1681 14.3921 27.3651 14.2287 27.5956 14.1149C27.8261 13.9982 28.0858 13.9398 28.3747 13.9398C28.6723 13.9398 28.932 13.9924 29.1538 14.0974C29.3784 14.1995 29.5681 14.3498 29.7227 14.5482C29.8803 14.7437 30.0043 14.9801 30.0948 15.2573C30.1852 15.5345 30.248 15.8482 30.283 16.1983V16.601C30.2509 16.9482 30.1882 17.2604 30.0948 17.5377C30.0043 17.8149 29.8803 18.0512 29.7227 18.2467C29.5681 18.4422 29.3784 18.5925 29.1538 18.6975C28.9291 18.7997 28.6665 18.8507 28.3659 18.8507C28.0829 18.8507 27.8261 18.7909 27.5956 18.6713C27.368 18.5516 27.1725 18.3839 27.0091 18.1679C26.8457 17.952 26.7202 17.6981 26.6327 17.4063C26.548 17.1116 26.5057 16.7921 26.5057 16.4478ZM27.3155 16.3559V16.4478C27.3155 16.6842 27.3388 16.9059 27.3855 17.1131C27.4351 17.3203 27.5095 17.5026 27.6087 17.6602C27.7108 17.8178 27.8407 17.9418 27.9982 18.0322C28.1558 18.1198 28.344 18.1635 28.5629 18.1635C28.8313 18.1635 29.0531 18.1066 29.2282 17.9928C29.4032 17.879 29.5418 17.7288 29.644 17.542C29.749 17.3553 29.8307 17.1525 29.8891 16.9336V15.8788C29.857 15.7183 29.8074 15.5637 29.7403 15.4149C29.6761 15.2631 29.5914 15.1289 29.4864 15.0122C29.3843 14.8925 29.2573 14.7977 29.1056 14.7277C28.9539 14.6576 28.7759 14.6226 28.5716 14.6226C28.3499 14.6226 28.1587 14.6693 27.9982 14.7627C27.8407 14.8531 27.7108 14.9786 27.6087 15.1391C27.5095 15.2967 27.4351 15.4805 27.3855 15.6906C27.3388 15.8978 27.3155 16.1195 27.3155 16.3559ZM32.5415 15.0384V18.7632H31.7317V14.0274H32.4977L32.5415 15.0384ZM32.3489 16.2158L32.0119 16.2027C32.0148 15.8788 32.0629 15.5797 32.1563 15.3054C32.2497 15.0282 32.381 14.7875 32.5502 14.5832C32.7195 14.379 32.9208 14.2214 33.1542 14.1105C33.3906 13.9967 33.6518 13.9398 33.9377 13.9398C34.1711 13.9398 34.3812 13.9719 34.568 14.0361C34.7547 14.0974 34.9138 14.1966 35.0451 14.3338C35.1793 14.4709 35.2814 14.6489 35.3514 14.8677C35.4215 15.0837 35.4565 15.3477 35.4565 15.66V18.7632H34.6424V15.6512C34.6424 15.4032 34.6059 15.2048 34.533 15.0559C34.46 14.9042 34.3535 14.7948 34.2135 14.7277C34.0734 14.6576 33.9012 14.6226 33.697 14.6226C33.4956 14.6226 33.3118 14.6649 33.1455 14.7496C32.9821 14.8342 32.8406 14.9509 32.7209 15.0997C32.6042 15.2485 32.5123 15.4192 32.4452 15.6118C32.381 15.8015 32.3489 16.0028 32.3489 16.2158ZM40.0873 15.2266L41.0414 14.5482C41.2253 14.4228 41.3668 14.2973 41.466 14.1718C41.5681 14.0434 41.6192 13.8683 41.6192 13.6466C41.6192 13.4744 41.5521 13.3183 41.4178 13.1783C41.2836 13.0353 41.0939 12.9638 40.8488 12.9638C40.6796 12.9638 40.5366 13.0032 40.4199 13.082C40.3032 13.1607 40.2156 13.2658 40.1573 13.3971C40.0989 13.5255 40.0698 13.667 40.0698 13.8217C40.0698 13.953 40.1018 14.0886 40.166 14.2287C40.2302 14.3688 40.3192 14.5147 40.433 14.6664C40.5468 14.8181 40.6767 14.9786 40.8226 15.1479L43.8383 18.7632H42.8666L40.3936 15.8044C40.1748 15.5476 39.9793 15.3127 39.8071 15.0997C39.635 14.8838 39.4993 14.6752 39.4001 14.4738C39.3038 14.2725 39.2556 14.0638 39.2556 13.8479C39.2556 13.5153 39.3213 13.2352 39.4526 13.0076C39.5868 12.777 39.7736 12.602 40.0129 12.4823C40.2521 12.3627 40.5322 12.3029 40.8532 12.3029C41.1654 12.3029 41.4339 12.3656 41.6586 12.4911C41.8862 12.6136 42.0612 12.777 42.1838 12.9813C42.3063 13.1826 42.3676 13.4044 42.3676 13.6466C42.3676 13.8508 42.3312 14.0347 42.2582 14.1981C42.1853 14.3586 42.0831 14.5059 41.9518 14.6401C41.8234 14.7744 41.6732 14.9057 41.501 15.0341L40.2361 15.9751C40.026 16.1297 39.8728 16.2771 39.7765 16.4172C39.6802 16.5572 39.6175 16.6812 39.5883 16.7892C39.562 16.8972 39.5489 16.9832 39.5489 17.0474C39.5489 17.2546 39.5941 17.4443 39.6846 17.6164C39.775 17.7886 39.9122 17.9272 40.096 18.0322C40.2828 18.1344 40.5162 18.1854 40.7963 18.1854C41.0414 18.1854 41.2792 18.13 41.5098 18.0191C41.7432 17.9053 41.9518 17.7448 42.1357 17.5377C42.3195 17.3276 42.4654 17.0781 42.5733 16.7892C42.6842 16.4974 42.7397 16.175 42.7397 15.8219H43.4662C43.4662 16.1108 43.4385 16.3836 43.3831 16.6404C43.3276 16.8972 43.2415 17.1364 43.1248 17.3582C43.011 17.577 42.8651 17.7769 42.6871 17.9578C42.6609 17.9841 42.6405 18.0147 42.6259 18.0497C42.6113 18.0848 42.5908 18.1154 42.5646 18.1417C42.3457 18.378 42.0758 18.556 41.7549 18.6756C41.4368 18.7924 41.1173 18.8507 40.7963 18.8507C40.3732 18.8507 40.007 18.7734 39.6977 18.6187C39.3913 18.4641 39.155 18.2511 38.9887 17.9797C38.8223 17.7083 38.7392 17.3976 38.7392 17.0474C38.7392 16.779 38.7961 16.5426 38.9099 16.3384C39.0266 16.1341 39.1856 15.943 39.387 15.765C39.5912 15.587 39.8246 15.4076 40.0873 15.2266ZM48.5566 18.7632H47.226L47.2347 18.076H48.5566C49.0118 18.076 49.3911 17.9812 49.6946 17.7915C49.998 17.5989 50.2256 17.3305 50.3774 16.9862C50.532 16.6389 50.6093 16.2333 50.6093 15.7694V15.3798C50.6093 15.0151 50.5656 14.6912 50.478 14.4082C50.3905 14.1222 50.2621 13.8815 50.0929 13.686C49.9236 13.4876 49.7164 13.3373 49.4713 13.2352C49.2292 13.133 48.9505 13.082 48.6354 13.082H47.1997V12.3904H48.6354C49.0526 12.3904 49.4334 12.4604 49.7777 12.6005C50.122 12.7376 50.4182 12.9375 50.6662 13.2001C50.9172 13.4598 51.1098 13.775 51.244 14.1455C51.3782 14.5132 51.4453 14.9276 51.4453 15.3886V15.7694C51.4453 16.2304 51.3782 16.6462 51.244 17.0168C51.1098 17.3845 50.9157 17.6981 50.6619 17.9578C50.4109 18.2175 50.1075 18.4174 49.7515 18.5575C49.3984 18.6946 49.0001 18.7632 48.5566 18.7632ZM47.6768 12.3904V18.7632H46.8321V12.3904H47.6768ZM54.5573 18.8507C54.2276 18.8507 53.9285 18.7953 53.66 18.6844C53.3945 18.5706 53.1655 18.4116 52.9729 18.2073C52.7832 18.0031 52.6373 17.7609 52.5352 17.4808C52.433 17.2006 52.382 16.8942 52.382 16.5616V16.3778C52.382 15.9926 52.4389 15.6497 52.5527 15.3492C52.6665 15.0457 52.8211 14.789 53.0166 14.5789C53.2121 14.3688 53.4339 14.2097 53.6819 14.1018C53.93 13.9938 54.1867 13.9398 54.4523 13.9398C54.7907 13.9398 55.0825 13.9982 55.3276 14.1149C55.5757 14.2316 55.7785 14.395 55.936 14.6051C56.0936 14.8123 56.2103 15.0574 56.2862 15.3404C56.3621 15.6206 56.4 15.9269 56.4 16.2596V16.6229H52.8634V15.962H55.5903V15.9007C55.5786 15.6906 55.5348 15.4863 55.4589 15.2879C55.386 15.0895 55.2693 14.9261 55.1088 14.7977C54.9483 14.6693 54.7295 14.6051 54.4523 14.6051C54.2684 14.6051 54.0992 14.6445 53.9445 14.7233C53.7899 14.7992 53.6571 14.913 53.5462 15.0647C53.4354 15.2164 53.3493 15.4017 53.288 15.6206C53.2267 15.8394 53.1961 16.0918 53.1961 16.3778V16.5616C53.1961 16.7863 53.2267 16.9978 53.288 17.1963C53.3522 17.3918 53.4441 17.5639 53.5637 17.7127C53.6863 17.8615 53.8337 17.9783 54.0058 18.0629C54.1809 18.1475 54.3793 18.1898 54.6011 18.1898C54.887 18.1898 55.1292 18.1315 55.3276 18.0147C55.5261 17.898 55.6997 17.7419 55.8485 17.5464L56.3387 17.9359C56.2366 18.0906 56.1067 18.238 55.9492 18.378C55.7916 18.5181 55.5976 18.6319 55.367 18.7194C55.1394 18.807 54.8695 18.8507 54.5573 18.8507ZM58.7241 18.0322L60.0197 14.0274H60.8469L59.1443 18.7632H58.6016L58.7241 18.0322ZM57.643 14.0274L58.978 18.0541L59.0699 18.7632H58.5272L56.8114 14.0274H57.643ZM63.53 18.8507C63.2002 18.8507 62.9011 18.7953 62.6327 18.6844C62.3672 18.5706 62.1381 18.4116 61.9455 18.2073C61.7559 18.0031 61.61 17.7609 61.5078 17.4808C61.4057 17.2006 61.3546 16.8942 61.3546 16.5616V16.3778C61.3546 15.9926 61.4115 15.6497 61.5253 15.3492C61.6391 15.0457 61.7938 14.789 61.9893 14.5789C62.1848 14.3688 62.4066 14.2097 62.6546 14.1018C62.9026 13.9938 63.1594 13.9398 63.4249 13.9398C63.7634 13.9398 64.0552 13.9982 64.3003 14.1149C64.5483 14.2316 64.7511 14.395 64.9087 14.6051C65.0663 14.8123 65.183 15.0574 65.2588 15.3404C65.3347 15.6206 65.3726 15.9269 65.3726 16.2596V16.6229H61.8361V15.962H64.5629V15.9007C64.5512 15.6906 64.5075 15.4863 64.4316 15.2879C64.3587 15.0895 64.2419 14.9261 64.0814 14.7977C63.921 14.6693 63.7021 14.6051 63.4249 14.6051C63.2411 14.6051 63.0718 14.6445 62.9172 14.7233C62.7625 14.7992 62.6298 14.913 62.5189 15.0647C62.408 15.2164 62.3219 15.4017 62.2607 15.6206C62.1994 15.8394 62.1687 16.0918 62.1687 16.3778V16.5616C62.1687 16.7863 62.1994 16.9978 62.2607 17.1963C62.3249 17.3918 62.4168 17.5639 62.5364 17.7127C62.659 17.8615 62.8063 17.9783 62.9785 18.0629C63.1535 18.1475 63.352 18.1898 63.5737 18.1898C63.8597 18.1898 64.1019 18.1315 64.3003 18.0147C64.4987 17.898 64.6723 17.7419 64.8211 17.5464L65.3114 17.9359C65.2092 18.0906 65.0794 18.238 64.9218 18.378C64.7642 18.5181 64.5702 18.6319 64.3397 18.7194C64.1121 18.807 63.8422 18.8507 63.53 18.8507ZM67.1978 12.0403V18.7632H66.3837V12.0403H67.1978ZM68.2833 16.4478V16.3471C68.2833 16.0057 68.3329 15.6891 68.4321 15.3973C68.5313 15.1026 68.6743 14.8473 68.861 14.6314C69.0478 14.4125 69.2739 14.2433 69.5395 14.1237C69.805 14.0011 70.1026 13.9398 70.4323 13.9398C70.765 13.9398 71.0641 14.0011 71.3296 14.1237C71.5981 14.2433 71.8257 14.4125 72.0124 14.6314C72.2021 14.8473 72.3465 15.1026 72.4457 15.3973C72.5449 15.6891 72.5945 16.0057 72.5945 16.3471V16.4478C72.5945 16.7892 72.5449 17.1058 72.4457 17.3976C72.3465 17.6894 72.2021 17.9447 72.0124 18.1635C71.8257 18.3795 71.5995 18.5487 71.334 18.6713C71.0714 18.7909 70.7737 18.8507 70.4411 18.8507C70.1084 18.8507 69.8094 18.7909 69.5438 18.6713C69.2783 18.5487 69.0507 18.3795 68.861 18.1635C68.6743 17.9447 68.5313 17.6894 68.4321 17.3976C68.3329 17.1058 68.2833 16.7892 68.2833 16.4478ZM69.093 16.3471V16.4478C69.093 16.6842 69.1207 16.9074 69.1762 17.1175C69.2316 17.3246 69.3148 17.5085 69.4257 17.669C69.5395 17.8294 69.681 17.9564 69.8502 18.0497C70.0195 18.1402 70.2164 18.1854 70.4411 18.1854C70.6629 18.1854 70.8569 18.1402 71.0232 18.0497C71.1925 17.9564 71.3325 17.8294 71.4434 17.669C71.5543 17.5085 71.6374 17.3246 71.6929 17.1175C71.7512 16.9074 71.7804 16.6842 71.7804 16.4478V16.3471C71.7804 16.1137 71.7512 15.8934 71.6929 15.6862C71.6374 15.4761 71.5528 15.2908 71.439 15.1304C71.3281 14.9669 71.1881 14.8386 71.0188 14.7452C70.8525 14.6518 70.657 14.6051 70.4323 14.6051C70.2106 14.6051 70.0151 14.6518 69.8458 14.7452C69.6795 14.8386 69.5395 14.9669 69.4257 15.1304C69.3148 15.2908 69.2316 15.4761 69.1762 15.6862C69.1207 15.8934 69.093 16.1137 69.093 16.3471ZM74.4197 14.9378V20.584H73.6056V14.0274H74.3497L74.4197 14.9378ZM77.6105 16.3559V16.4478C77.6105 16.7921 77.5696 17.1116 77.4879 17.4063C77.4062 17.6981 77.2866 17.952 77.129 18.1679C76.9743 18.3839 76.7832 18.5516 76.5556 18.6713C76.328 18.7909 76.0669 18.8507 75.7722 18.8507C75.4716 18.8507 75.2061 18.8011 74.9756 18.7019C74.745 18.6027 74.5495 18.4583 74.3891 18.2686C74.2286 18.0789 74.1002 17.8513 74.0039 17.5858C73.9105 17.3203 73.8463 17.0212 73.8113 16.6885V16.1983C73.8463 15.8482 73.912 15.5345 74.0083 15.2573C74.1046 14.9801 74.2315 14.7437 74.3891 14.5482C74.5495 14.3498 74.7436 14.1995 74.9712 14.0974C75.1988 13.9924 75.4614 13.9398 75.759 13.9398C76.0567 13.9398 76.3207 13.9982 76.5512 14.1149C76.7818 14.2287 76.9758 14.3921 77.1334 14.6051C77.2909 14.8181 77.4091 15.0735 77.4879 15.3711C77.5696 15.6658 77.6105 15.9941 77.6105 16.3559ZM76.7964 16.4478V16.3559C76.7964 16.1195 76.7716 15.8978 76.7219 15.6906C76.6723 15.4805 76.595 15.2967 76.49 15.1391C76.3878 14.9786 76.2565 14.8531 76.096 14.7627C75.9356 14.6693 75.7444 14.6226 75.5227 14.6226C75.3184 14.6226 75.1404 14.6576 74.9887 14.7277C74.8399 14.7977 74.7129 14.8925 74.6079 15.0122C74.5029 15.1289 74.4168 15.2631 74.3497 15.4149C74.2855 15.5637 74.2373 15.7183 74.2052 15.8788V17.0124C74.2636 17.2167 74.3453 17.4093 74.4503 17.5902C74.5554 17.7682 74.6954 17.9126 74.8705 18.0235C75.0456 18.1315 75.2659 18.1854 75.5314 18.1854C75.7503 18.1854 75.9385 18.1402 76.096 18.0497C76.2565 17.9564 76.3878 17.8294 76.49 17.669C76.595 17.5085 76.6723 17.3246 76.7219 17.1175C76.7716 16.9074 76.7964 16.6842 76.7964 16.4478ZM79.4488 14.9684V18.7632H78.6347V14.0274H79.405L79.4488 14.9684ZM79.2824 16.2158L78.906 16.2027C78.9089 15.8788 78.9513 15.5797 79.033 15.3054C79.1147 15.0282 79.2358 14.7875 79.3962 14.5832C79.5567 14.379 79.7566 14.2214 79.9959 14.1105C80.2351 13.9967 80.5124 13.9398 80.8275 13.9398C81.0493 13.9398 81.2535 13.9719 81.4403 14.0361C81.627 14.0974 81.789 14.1952 81.9261 14.3294C82.0632 14.4636 82.1697 14.6358 82.2456 14.8459C82.3215 15.0559 82.3594 15.3098 82.3594 15.6074V18.7632H81.5497V15.6468C81.5497 15.3988 81.5074 15.2004 81.4227 15.0516C81.341 14.9028 81.2243 14.7948 81.0726 14.7277C80.9209 14.6576 80.7429 14.6226 80.5386 14.6226C80.2993 14.6226 80.0995 14.6649 79.939 14.7496C79.7785 14.8342 79.6501 14.9509 79.5538 15.0997C79.4575 15.2485 79.3875 15.4192 79.3437 15.6118C79.3029 15.8015 79.2824 16.0028 79.2824 16.2158ZM82.3507 15.7694L81.8079 15.9357C81.8108 15.676 81.8531 15.4265 81.9348 15.1873C82.0195 14.948 82.1406 14.735 82.2981 14.5482C82.4586 14.3615 82.6556 14.2141 82.889 14.1062C83.1224 13.9953 83.3894 13.9398 83.69 13.9398C83.9438 13.9398 84.1685 13.9734 84.364 14.0405C84.5624 14.1076 84.7288 14.2112 84.863 14.3513C85.0001 14.4884 85.1037 14.6649 85.1738 14.8809C85.2438 15.0968 85.2788 15.3536 85.2788 15.6512V18.7632H84.4647V15.6425C84.4647 15.3769 84.4224 15.1712 84.3378 15.0253C84.2561 14.8765 84.1393 14.7729 83.9876 14.7145C83.8388 14.6533 83.6608 14.6226 83.4536 14.6226C83.2756 14.6226 83.1181 14.6533 82.9809 14.7145C82.8438 14.7758 82.7285 14.8604 82.6352 14.9684C82.5418 15.0735 82.4703 15.1945 82.4207 15.3317C82.374 15.4688 82.3507 15.6147 82.3507 15.7694ZM88.4696 18.8507C88.1398 18.8507 87.8407 18.7953 87.5723 18.6844C87.3068 18.5706 87.0777 18.4116 86.8851 18.2073C86.6955 18.0031 86.5496 17.7609 86.4474 17.4808C86.3453 17.2006 86.2942 16.8942 86.2942 16.5616V16.3778C86.2942 15.9926 86.3511 15.6497 86.4649 15.3492C86.5787 15.0457 86.7334 14.789 86.9289 14.5789C87.1244 14.3688 87.3462 14.2097 87.5942 14.1018C87.8422 13.9938 88.099 13.9398 88.3645 13.9398C88.703 13.9398 88.9948 13.9982 89.2399 14.1149C89.4879 14.2316 89.6907 14.395 89.8483 14.6051C90.0059 14.8123 90.1226 15.0574 90.1984 15.3404C90.2743 15.6206 90.3122 15.9269 90.3122 16.2596V16.6229H86.7757V15.962H89.5025V15.9007C89.4908 15.6906 89.4471 15.4863 89.3712 15.2879C89.2983 15.0895 89.1815 14.9261 89.0211 14.7977C88.8606 14.6693 88.6417 14.6051 88.3645 14.6051C88.1807 14.6051 88.0114 14.6445 87.8568 14.7233C87.7021 14.7992 87.5694 14.913 87.4585 15.0647C87.3476 15.2164 87.2615 15.4017 87.2003 15.6206C87.139 15.8394 87.1083 16.0918 87.1083 16.3778V16.5616C87.1083 16.7863 87.139 16.9978 87.2003 17.1963C87.2645 17.3918 87.3564 17.5639 87.476 17.7127C87.5986 17.8615 87.7459 17.9783 87.9181 18.0629C88.0931 18.1475 88.2916 18.1898 88.5133 18.1898C88.7993 18.1898 89.0415 18.1315 89.2399 18.0147C89.4383 17.898 89.6119 17.7419 89.7607 17.5464L90.251 17.9359C90.1488 18.0906 90.019 18.238 89.8614 18.378C89.7038 18.5181 89.5098 18.6319 89.2793 18.7194C89.0517 18.807 88.7818 18.8507 88.4696 18.8507ZM92.0674 15.0384V18.7632H91.2577V14.0274H92.0236L92.0674 15.0384ZM91.8748 16.2158L91.5378 16.2027C91.5407 15.8788 91.5888 15.5797 91.6822 15.3054C91.7756 15.0282 91.9069 14.7875 92.0761 14.5832C92.2454 14.379 92.4467 14.2214 92.6801 14.1105C92.9165 13.9967 93.1777 13.9398 93.4636 13.9398C93.697 13.9398 93.9071 13.9719 94.0939 14.0361C94.2806 14.0974 94.4397 14.1966 94.571 14.3338C94.7052 14.4709 94.8073 14.6489 94.8774 14.8677C94.9474 15.0837 94.9824 15.3477 94.9824 15.66V18.7632H94.1683V15.6512C94.1683 15.4032 94.1318 15.2048 94.0589 15.0559C93.9859 14.9042 93.8794 14.7948 93.7394 14.7277C93.5993 14.6576 93.4271 14.6226 93.2229 14.6226C93.0215 14.6226 92.8377 14.6649 92.6714 14.7496C92.508 14.8342 92.3665 14.9509 92.2468 15.0997C92.1301 15.2485 92.0382 15.4192 91.9711 15.6118C91.9069 15.8015 91.8748 16.0028 91.8748 16.2158ZM98.195 14.0274V14.6489H95.6346V14.0274H98.195ZM96.5012 12.8762H97.3109V17.5902C97.3109 17.7507 97.3357 17.8718 97.3853 17.9535C97.4349 18.0352 97.4991 18.0891 97.5779 18.1154C97.6567 18.1417 97.7413 18.1548 97.8318 18.1548C97.8989 18.1548 97.9689 18.149 98.0419 18.1373C98.1177 18.1227 98.1746 18.111 98.2126 18.1023L98.2169 18.7632C98.1527 18.7836 98.0681 18.8026 97.9631 18.8201C97.8609 18.8405 97.7369 18.8507 97.591 18.8507C97.3926 18.8507 97.2102 18.8113 97.0439 18.7325C96.8776 18.6538 96.7448 18.5225 96.6456 18.3386C96.5493 18.1519 96.5012 17.9009 96.5012 17.5858V12.8762ZM101.364 12.0403H102.178V17.844L102.108 18.7632H101.364V12.0403ZM105.378 16.3559V16.4478C105.378 16.7921 105.337 17.1116 105.255 17.4063C105.173 17.6981 105.054 17.952 104.896 18.1679C104.739 18.3839 104.546 18.5516 104.318 18.6713C104.091 18.7909 103.83 18.8507 103.535 18.8507C103.234 18.8507 102.97 18.7997 102.743 18.6975C102.518 18.5925 102.328 18.4422 102.174 18.2467C102.019 18.0512 101.895 17.8149 101.802 17.5377C101.711 17.2604 101.648 16.9482 101.613 16.601V16.1983C101.648 15.8482 101.711 15.5345 101.802 15.2573C101.895 14.9801 102.019 14.7437 102.174 14.5482C102.328 14.3498 102.518 14.1995 102.743 14.0974C102.967 13.9924 103.228 13.9398 103.526 13.9398C103.824 13.9398 104.088 13.9982 104.318 14.1149C104.549 14.2287 104.741 14.3921 104.896 14.6051C105.054 14.8181 105.173 15.0735 105.255 15.3711C105.337 15.6658 105.378 15.9941 105.378 16.3559ZM104.563 16.4478V16.3559C104.563 16.1195 104.542 15.8978 104.498 15.6906C104.454 15.4805 104.384 15.2967 104.288 15.1391C104.191 14.9786 104.064 14.8531 103.907 14.7627C103.749 14.6693 103.555 14.6226 103.325 14.6226C103.121 14.6226 102.943 14.6576 102.791 14.7277C102.642 14.7977 102.515 14.8925 102.41 15.0122C102.305 15.1289 102.219 15.2631 102.152 15.4149C102.088 15.5637 102.039 15.7183 102.007 15.8788V16.9336C102.054 17.1379 102.13 17.3349 102.235 17.5245C102.343 17.7113 102.486 17.8645 102.664 17.9841C102.845 18.1037 103.068 18.1635 103.334 18.1635C103.552 18.1635 103.739 18.1198 103.894 18.0322C104.051 17.9418 104.178 17.8178 104.275 17.6602C104.374 17.5026 104.447 17.3203 104.493 17.1131C104.54 16.9059 104.563 16.6842 104.563 16.4478ZM107.68 18.273L108.997 14.0274H109.864L107.964 19.4941C107.921 19.6108 107.862 19.7363 107.789 19.8705C107.719 20.0077 107.629 20.1375 107.518 20.2601C107.407 20.3826 107.273 20.4818 107.115 20.5577C106.961 20.6365 106.775 20.6759 106.559 20.6759C106.495 20.6759 106.413 20.6671 106.314 20.6496C106.215 20.6321 106.145 20.6175 106.104 20.6059L106.1 19.9493C106.123 19.9522 106.16 19.9552 106.209 19.9581C106.262 19.9639 106.298 19.9668 106.319 19.9668C106.502 19.9668 106.659 19.942 106.787 19.8924C106.915 19.8457 107.023 19.7655 107.111 19.6517C107.201 19.5408 107.279 19.3876 107.343 19.1921L107.68 18.273ZM106.713 14.0274L107.942 17.704L108.153 18.5575L107.57 18.8551L105.828 14.0274H106.713Z" fill="#ECF0F1"/>
<path d="M158.279 20.3724C158.268 20.335 158.243 20.303 158.21 20.2827C158.176 20.2624 158.137 20.2553 158.098 20.2627C158.036 20.2627 158.004 20.3254 157.934 20.4116C156.884 20.9914 156.954 20.819 157.103 19.9023C157.109 19.8672 157.101 19.8314 157.083 19.8012C157.064 19.771 157.035 19.7485 157.001 19.7377C156.868 19.6907 156.813 19.6594 156.704 19.8631L156.116 18.296C155.806 17.8843 155.633 17.3853 155.622 16.8699C155.582 16.5639 155.514 16.2623 155.419 15.9688C155.198 15.3897 155.056 14.7836 154.996 14.1666C155.156 13.5956 155.261 13.0104 155.309 12.4193C155.38 12.1607 155.662 11.2753 155.685 11.0089C155.685 10.6171 155.763 9.74738 155.748 9.3556C155.579 8.65082 155.351 7.96148 155.066 7.29484C155.044 7.2583 155.014 7.22638 154.98 7.20082C154.4 6.83254 152.778 7.39671 152.112 7.49073H151.948C151.601 7.50541 151.261 7.58515 150.945 7.7258C150.782 7.78233 150.645 7.89662 150.561 8.04706L150.341 8.431C150.295 8.52343 150.271 8.62538 150.271 8.72875C150.266 8.93868 150.248 9.14808 150.216 9.3556C149.676 10.5165 149.003 11.6104 148.21 12.6152C147.544 13.7435 146.353 15.4438 146.141 16.8542C146.106 17.3394 146.154 17.8269 146.282 18.296C146.282 18.296 145.961 18.1471 145.993 17.0031C145.967 16.9901 145.939 16.9832 145.91 16.9832C145.882 16.9832 145.853 16.9901 145.828 17.0031C145.39 17.1765 144.995 17.4429 144.671 17.7838C144.346 18.1247 144.099 18.532 143.947 18.9777C143.712 19.5906 143.712 20.2689 143.947 20.8817C143.901 21.0987 143.901 21.323 143.947 21.5399C144.034 21.6948 144.154 21.8281 144.299 21.9298C144.444 22.0316 144.611 22.0992 144.786 22.1276C144.943 22.0768 145.106 22.0452 145.272 22.0336C145.504 22.0124 145.732 21.9542 145.945 21.8612C146.157 21.7672 146.024 21.9709 146.369 22.2608C146.556 22.3842 146.772 22.4595 146.995 22.4802C147.34 21.8142 147.92 21.2892 150.263 20.9131C153.397 20.3959 153.946 21.9395 153.946 21.9395C153.946 21.9395 153.538 20.5761 150.38 21.0933C148.1 21.4694 147.395 21.9395 147.082 22.5821C147.083 22.6647 147.07 22.7469 147.042 22.825C147.176 24.3921 149.855 24.4783 151.046 24.8309C152.034 24.8309 153.334 24.6193 154.243 25.0659C154.441 25.1409 154.652 25.1703 154.862 25.1521C154.956 25.1051 154.996 25.0973 155.003 25.0424C155.006 25.0145 154.997 24.9868 154.98 24.965C154.962 24.9431 154.937 24.9288 154.909 24.9249C154.512 24.8602 154.136 24.7017 153.812 24.4626C154.316 24.1054 154.878 23.8401 155.474 23.679C155.971 23.4691 156.438 23.1923 156.86 22.8563L157.001 22.8015C157.03 22.7908 157.054 22.7693 157.067 22.7414C157.08 22.7136 157.082 22.6817 157.072 22.6526C157.059 22.6252 157.041 22.601 157.017 22.5817C156.994 22.5624 156.967 22.5484 156.938 22.5409C156.909 22.5334 156.878 22.5325 156.848 22.5383C156.819 22.5441 156.791 22.5563 156.766 22.5742C156.269 22.8823 155.744 23.1446 155.199 23.3578C155.09 23.3578 153.985 23.7417 154.118 23.4205C154.549 23.1384 155.121 22.7388 155.238 22.1903C155.247 21.7882 155.142 21.3919 154.935 21.0468C154.729 20.7017 154.429 20.4218 154.071 20.2392C153.221 20.0292 152.343 19.9526 151.47 20.012C152.368 19.8186 153.302 19.8591 154.181 20.1295C154.203 20.1176 154.219 20.0981 154.228 20.0747C154.33 19.9101 154.518 19.5654 154.612 19.3851C154.589 18.2871 154.437 17.1956 154.157 16.1334C153.958 15.9131 153.848 15.6269 153.848 15.3302C153.848 15.0335 153.958 14.7474 154.157 14.5271C154.157 14.5271 153.687 15.3106 154.157 15.8043C154.486 16.1804 154.698 18.249 154.784 19.3538C154.997 20.1092 155.308 20.8335 155.709 21.5086C155.873 21.5948 156.163 21.7593 156.335 21.8298C157.205 21.8769 157.182 21.5243 157.66 20.9523C157.738 20.8896 158.13 20.7172 158.302 20.584C158.321 20.5508 158.329 20.5124 158.325 20.4744C158.321 20.4363 158.305 20.4006 158.279 20.3724ZM154.917 9.70037C154.876 9.90214 154.782 10.0892 154.644 10.2422C154.506 10.3952 154.33 10.5084 154.134 10.5701C154.031 10.4059 153.963 10.2226 153.934 10.0314C153.904 9.8402 153.913 9.64496 153.961 9.45746C154.134 8.83845 154.596 8.83062 154.596 8.83062C154.596 8.83062 155.027 9.29292 154.941 9.66119L154.917 9.70037Z" fill="#97D8C4"/>
</svg>
