<svg width="99" height="119" viewBox="0 0 99 119" fill="none" xmlns="http://www.w3.org/2000/svg">
<path d="M2.2557 64.6359C1.75443 64.6359 1.00253 64.6359 0.501266 65.137C0 65.638 0 66.1391 0 66.6401C0.250633 67.3917 3.25823 86.4317 13.0329 95.9517C16.7924 99.7096 20.8025 102.465 24.3114 103.718C23.0582 107.977 22.557 112.486 22.557 116.996C22.557 117.998 23.3089 119 24.562 119C25.5646 119 26.5671 118.249 26.5671 116.996C26.5671 112.737 27.0684 108.478 28.0709 104.47C28.3215 104.47 28.8228 104.47 29.0734 104.47C30.3266 104.47 31.3291 104.219 32.5823 103.969C35.3392 109.48 38.8481 114.491 43.3595 118.249C43.6101 118.499 44.1114 118.75 44.6127 118.75C45.1139 118.75 45.6152 118.499 46.1165 118.249C46.8684 117.497 46.8684 116.244 45.8658 115.493C41.8557 111.735 38.5975 107.225 35.8405 102.215C36.0911 101.964 36.5924 101.714 36.843 101.463C37.8456 100.461 39.3494 98.457 39.8506 95.4507C41.1038 92.4443 41.8557 88.6864 41.8557 83.4254C41.8557 81.6717 41.6051 79.6675 41.3544 77.9138C50.3772 65.8885 60.9038 56.8696 65.6658 53.1117C66.6684 53.8633 67.6709 54.1138 68.4228 54.3643C69.1747 55.8675 70.1772 57.1201 71.681 58.3728C73.9367 60.377 76.443 61.3791 78.6987 61.3791C82.7089 61.3791 86.9696 58.6233 91.481 53.1117C100.003 43.0907 98.7494 28.5601 98.7494 28.0591C98.7494 27.558 98.4987 27.057 97.9975 26.8064C97.4962 26.5559 97.2456 26.3054 96.4937 26.3054C96.243 26.3054 93.9873 26.5559 90.7291 27.3075C90.9797 24.0507 90.7291 21.7959 90.7291 21.5454C90.7291 21.0443 90.4785 20.5433 89.9772 20.2928C89.476 20.0422 89.2253 19.7917 88.4734 19.7917C88.2228 19.7917 85.9671 20.0422 82.7089 20.7938C82.9595 17.537 82.7089 15.2822 82.7089 15.0317C82.7089 14.5307 82.4582 14.0296 81.957 13.7791C81.4557 13.5286 81.2051 13.278 80.4532 13.278C79.9519 13.278 65.4152 14.7812 56.8937 24.8022C52.8835 29.5622 50.8785 33.5707 50.8785 37.3285C50.8785 40.3349 52.1316 43.0907 55.1392 45.5959C56.643 46.8486 58.1468 47.6001 59.6506 48.1012C60.1519 49.1033 60.6532 49.8549 61.4051 50.6064C56.643 54.3643 47.3696 62.3812 38.8481 73.1538C35.5899 62.8822 29.3241 54.1138 29.0734 53.6128C28.3215 52.6107 26.8177 52.6107 26.0658 53.6128C26.0658 53.6128 25.5646 54.3643 24.8127 55.3664C24.562 48.8528 24.8127 43.8422 25.0633 41.337C26.3165 41.0864 27.319 40.8359 28.3215 40.5854C29.8253 41.0864 31.3291 41.5875 33.3342 41.5875C41.3544 41.5875 45.3646 36.3264 45.3646 24.8022C45.3646 11.7749 35.3392 1.25276 34.838 1.00224C34.0861 0.250658 32.8329 0.250658 32.081 1.00224C31.8304 1.25276 30.3266 2.75592 28.3215 5.51171C26.3165 2.75592 24.8127 1.25276 24.562 1.00224C23.8101 0.250658 22.557 0.250658 21.8051 1.00224C23.0582 0.751711 21.3038 2.25487 19.5494 5.01066C17.5443 2.25487 15.7899 0.751711 15.7899 0.501184C15.038 -0.250395 13.7848 -0.250395 13.0329 0.501184C12.5316 1.00224 2.50633 11.2738 2.50633 24.3012C2.50633 35.8254 6.26582 41.0864 14.5367 41.0864C16.5418 41.0864 18.0456 40.8359 19.5494 40.0843C20.5519 40.5854 21.5544 40.8359 22.557 40.8359C22.3063 44.3433 22.0557 51.6085 22.557 60.878C21.3038 63.3833 19.8 66.1391 18.7975 69.1454C10.5266 65.8885 2.75696 64.6359 2.2557 64.6359ZM65.4152 48.1012C64.9139 47.6001 64.4127 47.0991 64.162 46.3475C63.9114 45.8464 63.6608 45.0949 63.4101 44.5938C63.1595 42.0885 64.162 38.8317 68.4228 33.5707C71.1797 30.0633 74.9392 27.8086 78.6987 26.3054C79.4506 26.0549 80.2025 25.8043 80.7038 25.5538C81.4557 25.3033 82.2076 25.0528 82.7089 24.8022C84.4633 24.3012 86.2177 23.8001 87.2203 23.5496C87.2203 24.8022 87.2203 26.3054 86.9696 28.3096C86.9696 29.0612 86.719 29.8128 86.719 30.5643C86.719 31.3159 86.4684 32.0675 86.2177 32.8191C85.2152 36.577 83.7114 40.5854 80.9544 44.0928C77.1949 48.6022 73.9367 50.857 71.1797 50.857C71.1797 50.857 71.1797 50.857 70.9291 50.857C70.4278 50.857 69.6759 50.6064 69.1747 50.6064C68.924 50.6064 68.6734 50.3559 68.4228 50.3559C67.9215 50.1054 67.6709 49.8549 67.1696 49.6043C66.919 49.3538 66.4177 49.1033 66.1671 48.8528C66.1671 48.6022 65.9165 48.3517 65.4152 48.1012ZM58.6481 42.5896C56.643 40.8359 55.6405 39.3328 55.6405 37.3285C55.6405 34.8233 57.3949 31.3159 60.9038 27.3075C66.6684 20.5433 75.6911 18.2886 79.7013 17.537C79.7013 18.7896 79.7013 20.2928 79.4506 22.297C74.9392 24.0507 69.6759 26.8064 65.6658 31.5664C61.9063 36.0759 59.9013 40.0843 59.6506 43.5917C59.4 43.0907 59.1494 42.8401 58.6481 42.5896ZM74.1873 55.3664C73.9367 55.1159 73.4354 54.8654 73.1848 54.3643C76.6937 53.6128 80.2025 51.1075 83.962 46.3475C87.9722 41.5875 89.7266 35.8254 90.4785 31.0654C92.2329 30.5643 93.9873 30.0633 94.9899 29.8128C94.9899 33.8212 94.238 43.3412 88.4734 50.1054C84.7139 54.6149 81.2051 57.1201 78.4481 57.1201C77.1949 57.3707 75.6911 56.8696 74.1873 55.3664ZM14.5367 37.5791C10.5266 37.5791 6.26582 36.577 6.26582 24.3012C6.26582 15.5328 11.7797 7.76645 14.5367 4.5096C15.2886 5.51171 16.2911 6.76434 17.2937 8.2675C14.7873 12.777 12.5316 18.2886 12.5316 24.3012C12.5316 30.3138 13.5342 34.5728 15.7899 37.3285C15.2886 37.5791 14.7873 37.5791 14.5367 37.5791ZM19.5494 36.0759C17.7949 34.5728 16.2911 31.0654 16.2911 24.3012C16.2911 19.7917 17.7949 15.7833 19.5494 12.2759C19.8 11.5243 20.0506 11.0233 20.5519 10.2717C21.0532 9.52013 21.3038 9.01908 21.8051 8.51803C22.8076 7.01487 23.8101 5.51171 24.562 4.76013C25.3139 5.76224 26.3165 7.01487 27.319 8.51803C27.8203 9.01908 28.0709 9.77066 28.5722 10.2717C28.8228 11.0233 29.3241 11.5243 29.5747 12.2759C31.0785 15.7833 32.5823 20.0422 32.5823 24.3012C32.5823 31.0654 31.3291 34.3222 29.324 36.0759C28.8228 36.577 28.3215 36.8275 27.5696 37.078C26.8177 37.3286 26.3165 37.5791 25.5646 37.5791C25.0633 37.5791 24.8127 37.5791 24.3114 37.5791C23.8101 37.5791 23.5595 37.5791 23.0582 37.5791C22.3063 37.5791 21.5544 37.3286 21.0532 37.078C20.5519 36.8275 20.0506 36.577 19.5494 36.0759ZM42.6076 24.3012C42.6076 36.3264 38.3468 37.5791 34.3367 37.5791C33.8354 37.5791 33.5848 37.5791 33.0835 37.5791C35.0886 34.8233 36.3418 30.5643 36.3418 24.5517C36.3418 18.2886 34.0861 12.777 31.5797 8.76855C32.5823 7.26539 33.5848 5.76224 34.3367 5.01066C37.0937 7.76645 42.6076 15.5328 42.6076 24.3012ZM28.8228 57.8717C31.0785 61.6296 35.5899 69.1454 37.3443 76.6612C37.8456 78.6654 38.0962 80.4191 38.0962 82.4233C38.0962 82.6738 38.0962 82.9243 38.0962 83.4254C38.0962 84.4275 38.0962 85.1791 38.0962 86.1812C37.8456 85.6801 37.3443 84.9286 37.0937 84.4275C36.3418 83.4254 35.5899 82.1728 34.5873 81.1707C33.8354 80.1686 32.8329 78.9159 31.5797 77.9138C30.3266 76.6612 29.0734 75.6591 27.5696 74.657C26.3165 73.6549 24.8127 72.9033 23.3089 72.1517C22.8076 71.9012 22.557 71.6507 22.0557 71.4001C22.3063 70.1475 22.557 69.3959 23.0582 68.6443C24.0608 66.1391 25.3139 63.8843 26.3165 61.8801C27.319 60.377 28.0709 58.8738 28.8228 57.8717ZM15.5392 93.4464C8.77215 86.6822 5.51392 74.4064 4.26076 68.8949C7.26835 69.6464 12.281 70.8991 17.2937 72.9033C17.7949 73.1538 18.5468 73.4043 19.0481 73.6549C19.5494 73.9054 20.3013 74.1559 20.8025 74.4064C21.8051 74.9075 23.0582 75.6591 24.0608 76.1601C25.8152 77.1622 27.319 78.4149 28.5722 79.6675C28.8228 79.6675 28.8228 79.918 29.0734 79.918C30.3266 81.1707 31.5797 82.6738 32.5823 83.9265C33.5848 85.1791 34.3367 86.4317 34.838 87.6843C36.0911 89.9391 36.5924 92.1938 36.3418 94.198C36.0911 95.7012 35.5899 96.9538 34.838 98.2065L34.3367 97.7054L33.3342 96.7033L31.3291 94.6991L30.3266 93.697C29.5747 92.9454 28.5722 92.9454 27.8203 93.4464C27.8203 93.4464 27.5696 93.4464 27.5696 93.697C27.0684 94.198 27.0684 94.6991 27.0684 95.2001C27.0684 95.7012 27.319 95.9517 27.5696 96.4528L29.8253 98.958L30.0759 99.2085L31.0785 100.461L31.5797 101.213C31.3291 101.213 31.0785 101.463 30.8278 101.463C30.3266 101.714 29.5747 101.714 29.0734 101.714C27.8203 101.714 26.5671 101.463 25.3139 100.962C24.0608 100.461 22.557 99.7096 21.0532 98.7075C19.8 97.9559 18.5468 96.9538 17.2937 95.9517C16.7924 94.6991 16.2911 94.198 15.5392 93.4464Z" fill="white"/>
</svg>
