<svg width="133" height="125" viewBox="0 0 133 125" fill="none" xmlns="http://www.w3.org/2000/svg">
<path d="M37.5889 98.3644C44.8053 103.07 54.3053 105.674 64.4447 105.674H69.1947C79.2885 105.674 88.8341 103.07 96.0505 98.3644C103.541 93.4759 107.651 86.8512 107.651 79.7697V77.7595C107.651 74.6071 109.159 72.6882 112.538 71.5917C112.63 71.5461 112.675 71.5461 112.767 71.5004C120.349 68.6678 126.103 60.9923 126.103 52.9514C126.103 48.4284 124.322 44.4536 121.125 41.758C117.837 39.0168 113.498 37.9203 108.885 38.7427L107.697 38.9711V32.0267C107.697 30.8388 106.738 29.9251 105.596 29.9251H28.0889C26.9014 29.9251 25.988 30.8845 25.988 32.0267V79.7697C25.988 86.8969 30.0986 93.4759 37.5889 98.3644ZM109.524 42.9002C112.858 42.3063 116.01 43.0373 118.293 45.0018C120.531 46.875 121.764 49.7076 121.764 52.9514C121.764 59.3019 117.151 65.3783 111.123 67.5713C110.986 67.617 110.849 67.6626 110.712 67.7083C110.072 67.8911 109.433 68.0738 108.793 68.2109L107.606 68.4393V43.2657L109.524 42.9002ZM103.358 34.174V39.7021H35.1683C32.0168 39.7021 30.738 39.1082 30.2356 37.8746V34.174H103.358ZM30.1899 46.9664C30.7837 43.9053 32.2909 43.2657 34.8029 43.2657H103.312V79.8154C103.312 85.4349 99.887 90.7803 93.6298 94.8465C87.0986 99.0954 78.4207 101.471 69.1034 101.471H64.399C55.0817 101.471 46.4038 99.1411 39.8726 94.8465C33.6154 90.7803 30.1899 85.4349 30.1899 79.8154V46.9664ZM64.5817 13.6605C61.7043 6.30482 64.5361 0.274123 64.6274 0L66.4086 0.868056L68.1899 1.69042C68.0986 1.87317 65.9976 6.48757 68.2356 12.1985C71.524 20.5135 68.1899 25.8132 68.0529 26.0417L64.7644 23.9401C64.8558 23.803 67.0937 20.011 64.5817 13.6605ZM77.0962 16.4017C74.8125 10.5537 77.0505 5.71089 77.1418 5.52814L80.6587 7.21857C80.613 7.35563 79.0601 10.7822 80.7043 14.9854C83.3077 21.61 80.6587 25.9046 80.5216 26.0874L77.2332 23.9857C77.3245 23.8487 78.9231 21.0618 77.0962 16.4017ZM52.1586 16.4017C49.875 10.5537 52.113 5.71089 52.2043 5.52814L55.7212 7.21857C55.6755 7.35563 54.1226 10.7822 55.7668 14.9854C58.3702 21.61 55.7211 25.9046 55.5841 26.0874L52.2957 23.9857C52.3413 23.8487 53.9856 21.0618 52.1586 16.4017ZM130.853 110.243H112.356C112.356 110.243 112.356 110.243 112.31 110.243H20.6442C20.6442 110.243 20.6442 110.243 20.5986 110.243H2.10096C0.913462 110.243 0 111.202 0 112.345C0 113.533 0.959135 114.446 2.10096 114.446H12.9255C18.4519 114.446 20.0048 116.548 20.7812 118.375V118.421C23.476 124.909 30.2356 125 30.5553 125H62.8918H70.1082H102.445C102.719 125 109.524 124.909 112.173 118.421C112.95 116.594 114.502 114.446 120.029 114.446H130.853C132.041 114.446 132.954 113.487 132.954 112.345C133 111.202 132.041 110.243 130.853 110.243ZM102.399 120.751H70.0625H62.8462H30.5553C30.5096 120.751 26.3077 120.705 24.7091 116.776L23.75 114.446H109.204L108.245 116.776C106.647 120.66 102.582 120.751 102.399 120.751Z" fill="white"/>
</svg>
