<svg width="121" height="119" viewBox="0 0 121 119" fill="none" xmlns="http://www.w3.org/2000/svg">
<path d="M116.691 103.834H114.603V97.349C114.603 93.7584 111.686 90.8644 108.127 90.8644H101.569V40.8367C101.569 18.3283 83.2628 0 60.7543 0C38.2725 0 19.9659 18.3283 19.9659 40.8367V90.8644H10.7324C7.14599 90.8644 4.25547 93.7852 4.25547 97.349V103.86C1.90024 103.887 0 105.816 0 108.175V112.489C0 116.079 2.89051 118.973 6.47689 118.973H114.523C118.109 118.973 121 116.079 121 112.489V108.175C121 105.79 119.073 103.834 116.691 103.834ZM24.3017 40.8367C24.3017 20.7131 40.6545 4.31412 60.781 4.31412C80.8808 4.31412 97.2603 20.6863 97.2603 40.8367V90.8644H24.3017V40.8367ZM8.56448 97.349C8.56448 96.1432 9.52798 95.1786 10.7324 95.1786H108.127C109.331 95.1786 110.294 96.1432 110.294 97.349V103.834H8.56448V97.349ZM116.691 112.489C116.691 113.694 115.727 114.659 114.523 114.659H6.47689C5.27251 114.659 4.309 113.694 4.309 112.489V108.175H114.603H116.691V112.489Z" fill="white"/>
</svg>
