<svg width="109" height="125" viewBox="0 0 109 125" fill="none" xmlns="http://www.w3.org/2000/svg">
<path d="M100.083 94.552C99.2029 94.027 98.0882 94.1145 97.3256 94.8145C92.6031 98.8975 74.1822 97.381 68.961 96.3602C67.817 96.1269 65.9104 93.9104 65.1477 91.4022C64.7077 89.944 64.7371 88.6899 65.2357 88.1941C65.9984 87.4358 68.8143 86.59 71.7769 85.6859C77.9661 83.8194 87.3525 80.9904 97.8243 74.02C114.104 63.2291 108.677 18.4612 105.48 9.18685C105.04 7.93277 104.043 5.0163 101.52 5.19129C98.8509 5.39544 93.483 10.8784 69.577 37.9141C67.2303 40.5681 64.9717 43.1346 62.8011 45.5553C63.1238 43.8929 63.2998 42.2888 63.2704 40.7431C62.9185 28.1731 60.4545 6.18289 47.9295 0.233285C47.2842 -0.0875272 46.5215 -0.0875272 45.8762 0.233285C45.2309 0.554097 44.7616 1.13739 44.5856 1.83734C42.7963 9.68265 36.2551 30.8271 27.4846 34.3268C21.1195 36.8642 16.9542 40.7722 15.165 45.9344C12.9943 52.1173 14.6956 58.7669 16.8369 63.7541C16.2209 63.6666 15.5756 63.6082 14.989 63.5207C11.8797 63.1708 9.12243 63.929 6.77582 65.8247C0.997296 70.4911 0.0586527 80.6113 -1.24965e-05 81.0196C-0.0586777 81.807 0.263981 82.5653 0.850633 83.0611C1.46662 83.5569 2.2586 83.7319 3.02125 83.4986C3.07991 83.4694 8.50645 81.9237 13.4637 83.4986L14.3143 83.7611C18.9195 85.1901 19.6235 85.4234 26.0474 94.0854C30.8872 100.618 36.4604 101.114 40.5377 101.435C43.3243 101.668 44.8202 101.843 45.7882 103.126C46.2575 103.768 46.8442 104.585 47.5188 105.547C52.0361 112.022 61.0412 124.971 72.1876 124.971C73.1555 124.971 74.1528 124.883 75.1795 124.65C77.0568 124.242 78.7874 123.658 80.43 122.988C80.606 122.929 80.7527 122.871 80.9287 122.783C96.739 115.988 100.963 97.8768 101.168 97.031C101.403 96.0686 100.963 95.0478 100.083 94.552ZM19.6822 47.4801C21.0315 43.6596 24.2581 40.6848 29.3033 38.6724C39.8923 34.4727 46.2282 14.3782 48.4575 6.12456C50.3934 7.78695 51.9481 10.1201 53.2094 12.8324C50.3641 21.1444 42.151 41.0639 33.4098 46.2261C32.2952 46.8968 31.9139 48.3259 32.5885 49.4633C33.0285 50.1925 33.8205 50.6299 34.6418 50.6299C35.0525 50.6299 35.4631 50.5133 35.8444 50.3091C44.7909 45.0303 52.1534 28.873 55.732 19.7737C57.2279 25.2566 57.9612 31.1187 58.3132 35.5809C54.412 40.3348 45.1722 50.8632 40.6843 52.8756C39.4817 53.4006 38.9537 54.8005 39.511 55.9962C39.8923 56.8712 40.7723 57.3961 41.6816 57.3961C42.0043 57.3961 42.327 57.3378 42.6496 57.192C47.1375 55.1796 54.1187 47.7426 58.5479 42.6388C57.8146 51.0382 50.5108 62.7041 44.3216 67.108C41.1243 69.3828 35.1405 70.112 27.8953 69.0912C25.9887 68.8287 24.2874 67.6913 23.3487 66.0289C20.9435 61.9167 17.3649 54.1005 19.6822 47.4801ZM79.6674 118.234C75.6781 116.892 70.4276 111.701 68.6383 109.659C67.7877 108.668 66.2917 108.58 65.2944 109.426C64.2971 110.272 64.2091 111.759 65.0597 112.751C65.6171 113.363 69.1076 117.3 73.3022 120.159C64.2091 121.15 55.644 108.901 51.4494 102.864C50.7454 101.843 50.1294 100.968 49.6014 100.268C47.3428 97.2643 43.9403 96.9727 40.9777 96.7102C37.2817 96.3894 33.4685 96.0686 29.8899 91.2564C22.7914 81.6612 21.3541 80.9612 15.7516 79.2114L14.901 78.9489C11.381 77.8406 7.80246 77.9281 5.25053 78.2489C5.95451 75.2741 7.33314 71.3952 9.79708 69.412C11.117 68.3329 12.6717 67.9246 14.461 68.1288C15.3996 68.2454 16.3969 68.3621 17.4236 68.5079L19.4768 68.7704C21.2075 71.3952 24.0234 73.2034 27.162 73.6409C29.2446 73.9325 31.5619 74.1367 33.9672 74.1367C38.5724 74.1367 43.4123 73.3492 46.9908 70.8119C50.8041 68.0996 54.8813 63.2291 57.9906 57.8044C58.0786 57.7461 58.1666 57.6878 58.2546 57.6295C62.2731 53.2839 67.553 47.3051 73.1262 40.9764C82.542 30.3313 96.2403 14.8448 101.051 10.7034C101.344 11.52 101.638 12.6283 101.901 13.9699C101.051 15.7781 90.2271 38.2058 70.0756 52.8756C69.0196 53.6339 68.785 55.1213 69.5476 56.1712C70.0169 56.8128 70.7209 57.1337 71.4542 57.1337C71.9529 57.1337 72.4222 56.9878 72.8622 56.667C88.4085 45.3511 98.4696 30.0105 103.192 21.6985C103.72 25.7816 104.101 30.5063 104.189 35.4351C104.043 35.6101 87.9978 53.4881 78.5527 59.7001C77.4674 60.4293 77.1741 61.8875 77.8781 62.9666C78.3474 63.6374 79.0807 64.0165 79.8434 64.0165C80.2834 64.0165 80.7527 63.8999 81.1633 63.6374C88.3792 58.8835 98.7336 48.2384 104.131 42.4638C103.984 46.1094 103.691 49.755 103.104 53.1673C103.075 53.1964 103.045 53.1964 103.016 53.2256C94.4803 61.275 84.5659 66.933 84.4779 66.9913C83.3339 67.633 82.9526 69.0912 83.5979 70.1995C84.0379 70.9577 84.8299 71.3952 85.6512 71.3952C86.0619 71.3952 86.4432 71.3077 86.8245 71.0744C87.1765 70.8702 93.835 67.0497 101.11 61.1292C99.6136 65.3873 97.5896 68.4204 95.155 70.0245C85.2406 76.5865 76.2941 79.2989 70.3396 81.1071C66.1744 82.3611 63.4171 83.2069 61.8038 84.7818C60.0145 86.5609 59.5452 89.4482 60.5425 92.6854C61.6278 96.2435 64.5317 100.21 67.9637 100.881C68.169 100.91 84.6539 103.651 94.8323 100.939C94.0697 102.806 92.9844 105.051 91.5178 107.326C83.5393 108.609 77.9661 104.614 77.7021 104.439C76.6754 103.651 75.1795 103.856 74.3875 104.905C73.5955 105.955 73.8008 107.414 74.8568 108.201C75.1208 108.405 80.1367 112.051 87.7045 112.284C85.5632 114.617 82.9233 116.717 79.6674 118.234Z" fill="white"/>
</svg>
